<svg id="visual" viewBox="0 0 960 300" width="960" height="300" xmlns="http://www.w3.org/2000/svg" xmlns:xlink="http://www.w3.org/1999/xlink" version="1.1"><rect x="0" y="0" width="960" height="300" fill="#3c31dd"></rect><path d="M0 244L22.8 234.8C45.7 225.7 91.3 207.3 137 199.3C182.7 191.3 228.3 193.7 274 203.3C319.7 213 365.3 230 411.2 235.7C457 241.3 503 235.7 548.8 228.7C594.7 221.7 640.3 213.3 686 218.5C731.7 223.7 777.3 242.3 823 245C868.7 247.7 914.3 234.3 937.2 227.7L960 221L960 301L937.2 301C914.3 301 868.7 301 823 301C777.3 301 731.7 301 686 301C640.3 301 594.7 301 548.8 301C503 301 457 301 411.2 301C365.3 301 319.7 301 274 301C228.3 301 182.7 301 137 301C91.3 301 45.7 301 22.8 301L0 301Z" fill="#0008ff" stroke-linecap="round" stroke-linejoin="miter"></path></svg>
